<svg width="74" height="65" viewBox="0 0 74 65" fill="none" xmlns="http://www.w3.org/2000/svg">
<g filter="url(#filter0_d_3800_203)">
<path d="M26.4058 43.3717C26.3892 43.3009 26.3652 43.2312 26.3333 43.1637C26.3016 43.0973 26.2623 43.0331 26.2167 42.9733C26.1708 42.9124 26.1175 42.856 26.0592 42.805C26.0007 42.7542 25.936 42.7077 25.8661 42.6679C25.7976 42.6279 25.724 42.5937 25.6466 42.566C25.5704 42.5384 25.4904 42.5162 25.4092 42.503C25.2454 42.4741 25.0766 42.4741 24.9141 42.503C24.8328 42.5162 24.7529 42.5384 24.6753 42.566C24.5991 42.5937 24.5255 42.6279 24.4569 42.6679C24.3872 42.7077 24.3224 42.7542 24.2641 42.805C24.2057 42.856 24.1523 42.9124 24.1066 42.9733C24.0596 43.0331 24.0216 43.0973 23.9899 43.1637C23.9581 43.2312 23.9327 43.3009 23.9174 43.3717C23.901 43.4425 23.8921 43.5156 23.8921 43.5876C23.8921 43.6596 23.901 43.7325 23.9174 43.8034C23.9327 43.8742 23.9581 43.9439 23.9899 44.0103C24.0216 44.0779 24.0596 44.1421 24.1066 44.2019C24.1523 44.2626 24.2057 44.3192 24.2641 44.37C24.3224 44.421 24.3872 44.4675 24.4569 44.5073C24.5255 44.5473 24.5991 44.5815 24.6753 44.6092C24.7529 44.6369 24.8328 44.659 24.9141 44.6723C24.9953 44.6867 25.0792 44.6944 25.1615 44.6944C25.2441 44.6944 25.3279 44.6867 25.4092 44.6723C25.4904 44.659 25.5704 44.6369 25.6466 44.6092C25.724 44.5815 25.7976 44.5471 25.8661 44.5073C25.936 44.4675 26.0007 44.421 26.0592 44.37C26.1175 44.3192 26.1708 44.2626 26.2167 44.2019C26.2623 44.1421 26.3016 44.0779 26.3333 44.0103C26.3652 43.9439 26.3892 43.8742 26.4058 43.8034C26.4222 43.7325 26.4312 43.6596 26.4312 43.5876C26.4312 43.5156 26.4222 43.4425 26.4058 43.3717Z" fill="#31C5A1"/>
<path d="M62.8975 43.713C62.8926 43.702 62.8874 43.691 62.8822 43.6801C61.7137 41.2966 58.9732 40.4156 55.7301 41.3812L46.8855 43.5135C46.3741 42.1635 45.0987 41.0147 43.2952 40.4312C43.284 40.4276 43.2728 40.4241 43.2616 40.4208L33.5394 37.544C32.7301 36.6322 30.1955 34.2988 25.4495 34.2988C22.1329 34.2988 19.1989 36.2824 17.5203 38.4446H5.76953C5.06838 38.4446 4.5 38.94 4.5 39.5513V53.5051C4.5 54.1163 5.06838 54.6118 5.76953 54.6118H13.3178C14.0189 54.6118 14.5873 54.1163 14.5873 53.5051V52.5495H18.1271C18.8283 52.5495 19.3967 52.0541 19.3967 51.4428V51.1242C21.4601 51.2811 22.1389 51.6224 24.034 52.5751C25.4914 53.3078 27.6941 54.4151 31.6609 55.97C31.6794 55.9772 31.6979 55.984 31.7166 55.9904C32.4779 56.2515 33.9663 56.6618 35.8011 56.6618C37.0783 56.6618 38.5236 56.4629 40.0072 55.8765L59.5568 49.7744C59.5916 49.7634 59.6259 49.7513 59.6595 49.7378C61.5278 48.9884 64.312 46.8763 62.8975 43.713ZM12.0482 52.3982H7.03906V40.658H12.0482V52.3982ZM16.8576 50.3359H14.5873V40.658H16.8576V50.3359ZM58.645 47.7076L39.104 53.8072C39.087 53.8124 39.0638 53.8204 39.0468 53.8264C39.0296 53.8325 39.0126 53.8389 38.9957 53.8457C36.2741 54.936 33.6873 54.2833 32.6734 53.9396C28.8417 52.4366 26.7966 51.4085 25.3024 50.6572C23.2249 49.6129 22.2239 49.1095 19.3967 48.9061V39.9918C20.6 38.2724 22.9337 36.5124 25.4497 36.5124C29.7642 36.5124 31.5925 38.9588 31.6643 39.0576C31.8193 39.2774 32.0577 39.443 32.3379 39.5259L42.4275 42.5114C44.0388 43.0385 44.8905 44.2417 44.4991 45.4413C44.3183 45.9954 43.9011 46.455 43.3238 46.7353C42.7517 47.0133 42.0903 47.082 41.4598 46.9298L30.0858 43.7875C29.4169 43.6028 28.7037 43.9255 28.492 44.5083C28.2801 45.091 28.6503 45.7131 29.3186 45.8976L40.7126 49.0455C40.7247 49.0487 40.7367 49.052 40.7489 49.055C41.2037 49.1677 41.6668 49.2236 42.1272 49.2236C42.9699 49.2236 43.8034 49.0364 44.5598 48.6689C45.7293 48.1008 46.5751 47.1697 46.9413 46.0468C46.9705 45.9571 46.9963 45.8675 47.0188 45.7778L56.5509 43.4757C57.9276 43.0659 59.7347 42.9181 60.5393 44.5337C61.3721 46.4303 59.2076 47.4737 58.645 47.7076Z" fill="#31C5A1"/>
<path d="M50.0839 14.5563C50.0673 14.4855 50.0432 14.4158 50.0101 14.3482C49.9784 14.2817 49.9404 14.2176 49.8934 14.1578C49.8476 14.097 49.7943 14.0405 49.7359 13.9896C49.6776 13.9387 49.6128 13.8922 49.5429 13.8524C49.4745 13.8125 49.4007 13.7782 49.3247 13.7506C49.2471 13.7229 49.1672 13.7007 49.0872 13.6875C48.9234 13.6587 48.7546 13.6587 48.5908 13.6875C48.5096 13.7007 48.4296 13.7229 48.3534 13.7506C48.276 13.7782 48.2024 13.8125 48.1339 13.8524C48.064 13.8922 47.9991 13.9387 47.9408 13.9896C47.8825 14.0405 47.8292 14.097 47.7833 14.1578C47.7377 14.2176 47.6984 14.2817 47.6667 14.3482C47.6348 14.4158 47.6095 14.4855 47.5942 14.5563C47.5778 14.6271 47.5688 14.7002 47.5688 14.772C47.5688 14.844 47.5778 14.9171 47.5942 14.9879C47.6095 15.0588 47.6348 15.1285 47.6667 15.1949C47.6984 15.2624 47.7377 15.3265 47.7833 15.3863C47.8292 15.4472 47.8825 15.5036 47.9408 15.5546C47.9991 15.6055 48.064 15.6519 48.1339 15.6919C48.2024 15.7317 48.276 15.766 48.3534 15.7936C48.4296 15.8214 48.5096 15.8423 48.5908 15.8568C48.6721 15.8711 48.7559 15.8789 48.8385 15.8789C48.9208 15.8789 49.0047 15.8711 49.0872 15.8568C49.1672 15.8423 49.2471 15.8214 49.3247 15.7936C49.4007 15.766 49.4745 15.7317 49.5429 15.6919C49.6128 15.6519 49.6776 15.6055 49.7359 15.5546C49.7943 15.5036 49.8476 15.4472 49.8934 15.3863C49.9404 15.3265 49.9784 15.2624 50.0101 15.1949C50.0432 15.1285 50.0673 15.0588 50.0839 14.9879C50.1003 14.9171 50.1079 14.844 50.1079 14.772C50.1079 14.7002 50.1003 14.6271 50.0839 14.5563Z" fill="#31C5A1"/>
<path d="M68.2299 3.74837H60.6818C59.9806 3.74837 59.4122 4.24388 59.4122 4.85514V5.81073H55.8724C55.1712 5.81073 54.6028 6.30623 54.6028 6.9175V7.23603C52.5394 7.07898 51.8606 6.73788 49.9657 5.78517C48.5082 5.05248 46.3054 3.94516 42.3386 2.39026C42.3201 2.38296 42.3016 2.3762 42.2827 2.36979C40.9915 1.92685 37.6073 1.05539 33.9928 2.48344L28.8843 4.07809L24.578 0.324145C24.0824 -0.108048 23.2785 -0.108048 22.7827 0.324145L8.6455 12.6488C8.18821 13.0476 8.10049 13.739 8.6455 14.2141L32.8029 35.2744C33.1895 35.6116 34.0947 35.7136 34.5984 35.2744L47.5051 24.0226C47.8407 24.0479 48.1889 24.0615 48.5498 24.0615C51.8666 24.0615 54.8006 22.0779 56.479 19.9159H68.2299C68.9311 19.9159 69.4995 19.4205 69.4995 18.8092V4.85514C69.4995 4.24388 68.9311 3.74837 68.2299 3.74837ZM23.6804 2.67193L26.5738 5.19448C25.7137 5.65822 24.7192 5.90635 23.6804 5.90635C22.6412 5.90635 21.6468 5.65834 20.7867 5.19448L23.6804 2.67193ZM14.2322 15.9541L11.3387 13.4314L14.2322 10.9088C14.7641 11.6587 15.0487 12.5256 15.0487 13.4314C15.0487 14.3372 14.7643 15.2041 14.2322 15.9541ZM33.7008 32.9266L30.8078 30.4045C32.5741 29.4542 34.8272 29.4542 36.5937 30.4045L33.7008 32.9266ZM38.4228 28.81C35.6174 27.0359 31.7842 27.0359 28.9788 28.81L16.0612 17.5485C17.0526 16.3598 17.5877 14.9319 17.5877 13.4314C17.5877 11.9307 17.0526 10.503 16.0612 9.31433L18.9579 6.78912C20.3213 7.6534 21.959 8.12001 23.6804 8.12001C25.4017 8.12001 27.0394 7.6534 28.4029 6.78912L31.1489 9.18295C30.5564 9.2592 29.9785 9.42943 29.4397 9.69117C28.5297 10.1332 27.8158 10.7952 27.3712 11.596C25.9391 11.8272 24.6134 12.4316 23.5734 13.3382C20.7518 15.7981 20.7518 19.8005 23.5734 22.2604C24.9843 23.4903 26.8374 24.1053 28.6906 24.1053C30.5437 24.1053 32.397 23.4903 33.8078 22.2604C34.7256 21.4602 35.3687 20.4768 35.6907 19.4049L39.9772 20.6733C39.4947 22.622 39.9889 24.6722 41.322 26.2826L38.4228 28.81ZM30.7043 17.929C30.7155 17.9326 30.7267 17.9361 30.7379 17.9395L33.2765 18.6906C33.0849 19.4449 32.651 20.1385 32.0124 20.6952C30.1808 22.2918 27.2004 22.2921 25.3691 20.6952C23.5374 19.0985 23.5374 16.5003 25.3691 14.9035C25.8107 14.5181 26.3322 14.217 26.9003 14.0128C27.1346 15.713 28.5389 17.2285 30.7043 17.929ZM43.1513 24.6877C42.6613 23.9915 42.3839 23.1969 42.3402 22.386C42.9483 22.7694 43.6914 23.1448 44.5792 23.4429L43.1513 24.6877ZM54.6026 18.3679C53.3995 20.0876 51.0658 21.8477 48.5498 21.8477C48.0791 21.8477 47.6379 21.8185 47.2255 21.7665C47.2238 21.7662 47.2222 21.7661 47.2206 21.7658C44.4789 21.4186 43.004 20.0601 42.518 19.5222C42.492 19.4891 42.3817 19.3633 42.3654 19.3423C42.2174 19.1118 41.9749 18.9267 41.6657 18.8351L31.5718 15.8485C29.9611 15.3214 29.1096 14.1189 29.5 12.9196C29.5001 12.9189 29.5005 12.9181 29.5006 12.9173C29.5011 12.9164 29.5013 12.9154 29.5016 12.9145C29.6829 12.3623 30.0996 11.9042 30.6755 11.6245C31.2475 11.3466 31.9089 11.2776 32.5395 11.43L43.9137 14.5723C44.5822 14.7571 45.2956 14.4343 45.5074 13.8515C45.7193 13.2688 45.3491 12.6468 44.6807 12.4621L35.6347 9.96301L35.5557 9.89415C35.5549 9.89349 35.5542 9.89272 35.5533 9.89206L30.87 5.80918L34.8955 4.55256C34.9089 4.54824 34.9258 4.54282 34.9392 4.53806C34.9426 4.53685 34.9492 4.53462 34.9525 4.5334C34.9699 4.52733 34.9868 4.52091 35.0037 4.51415C37.7251 3.42376 40.3119 4.07643 41.3259 4.42018C45.1577 5.9233 47.2029 6.95137 48.6971 7.70253C50.7746 8.74699 51.7756 9.25024 54.6026 9.45377V18.3679ZM59.4122 17.7022H57.1419V8.02427H59.4122V17.7022ZM66.9604 17.7022H61.9512V5.96191H66.9604V17.7022Z" fill="#31C5A1"/>
</g>
<defs>
<filter id="filter0_d_3800_203" x="0.5" y="0" width="72.9995" height="64.6617" filterUnits="userSpaceOnUse" color-interpolation-filters="sRGB">
<feFlood flood-opacity="0" result="BackgroundImageFix"/>
<feColorMatrix in="SourceAlpha" type="matrix" values="0 0 0 0 0 0 0 0 0 0 0 0 0 0 0 0 0 0 127 0" result="hardAlpha"/>
<feOffset dy="4"/>
<feGaussianBlur stdDeviation="2"/>
<feColorMatrix type="matrix" values="0 0 0 0 0 0 0 0 0 0 0 0 0 0 0 0 0 0 0.25 0"/>
<feBlend mode="normal" in2="BackgroundImageFix" result="effect1_dropShadow_3800_203"/>
<feBlend mode="normal" in="SourceGraphic" in2="effect1_dropShadow_3800_203" result="shape"/>
</filter>
</defs>
</svg>
